#!OML:ASF I:\Random Stuff\random\construction\7_22_03\Session 2\subj1.ASF
:FULLY-SPECIFIED
:DEGREES
785
root -9.35276 17.7646 -0.20257 -186.869 64.928 -192.651
lowerback 6.40224 -2.90534 1.70073
upperback 1.57023 -3.50999 4.24053
thorax -1.80054 -1.69347 3.69664
lowerneck -10.7724 -12.3582 -9.68892
upperneck 31.0106 -16.7833 7.23873
head 13.8145 -7.19827 1.89307
rclavicle -2.18663e-014 7.95139e-015
rhumerus -27.4654 9.5229 -69.5415
rradius 51.0741
rwrist 12.4863
rhand -30.7384 16.8161
rfingers 7.12502
rthumb -4.03048 -13.1255
lclavicle -2.18663e-014 7.95139e-015
lhumerus -29.6843 -9.89089 94.4284
lradius 36.2115
lwrist 13.3817
lhand -18.2579 52.3464
lfingers 7.12502
lthumb 8.02143 442.174
rfemur -11.4117 8.363 20.8572
rtibia 21.001
rfoot -10.3187 -24.7097
rtoes 1.33084
lfemur -17.615 5.74395 -18.8589
ltibia 35.7376
lfoot -7.31658 -2.49711
ltoes -30.596
786
root -9.38524 17.7601 -0.202985 -186.871 64.8942 -192.67
lowerback 6.50099 -2.98246 1.68506
upperback 1.47683 -3.60552 4.26583
thorax -1.94448 -1.74047 3.7485
lowerneck -10.5138 -12.3196 -9.69128
upperneck 30.2744 -16.6378 6.95904
head 13.3913 -7.2244 1.82615
rclavicle -5.56597e-015 1.74931e-014
rhumerus -27.3466 9.8765 -69.466
rradius 51.1471
rwrist 12.7707
rhand -30.3642 16.9693
rfingers 7.12502
rthumb -3.66916 -12.9789
lclavicle -5.56597e-015 1.74931e-014
lhumerus -29.7489 -9.5031 94.4319
lradius 35.9864
lwrist 13.3954
lhand -18.0775 51.9
lfingers 7.12502
lthumb 8.19557 441.721
rfemur -11.5925 8.277 20.7839
rtibia 21.1036
rfoot -10.2306 -24.6624
rtoes 1.11069
lfemur -17.6716 6.93427 -19.4028
ltibia 36.5989
lfoot -8.41983 -2.15565
ltoes -32.3714
787
root -9.4188 17.757 -0.202461 -186.945 64.8686 -192.729
lowerback 6.59373 -3.05005 1.63102
upperback 1.42253 -3.6927 4.28486
thorax -2.04295 -1.78326 3.81322
lowerneck -10.4233 -12.29 -9.60372
upperneck 29.6323 -16.4938 6.57526
head 13.032 -7.24261 1.69902
rclavicle 2.26615e-014 5.08889e-014
rhumerus -27.2065 10.276 -69.387
rradius 51.2153
rwrist 12.7667
rhand -30.0483 16.9834
rfingers 7.12502
rthumb -3.36408 -12.9698
lclavicle 2.26615e-014 5.08889e-014
lhumerus -29.8129 -9.4633 94.5136
lradius 35.8876
lwrist 13.6673
lhand -18.0482 51.5451
lfingers 7.12502
lthumb 8.22378 441.365
rfemur -11.7486 8.4398 20.6921
rtibia 21.2478
rfoot -10.1575 -24.8268
rtoes 1.04923
lfemur -17.683 8.14198 -19.9605
ltibia 37.7106
lfoot -9.13963 -2.11222
ltoes -31.3613
788
root -9.45413 17.7568 -0.203514 -186.97 64.8622 -192.705
lowerback 6.67466 -3.1009 1.64299
upperback 1.36896 -3.75311 4.30249
thorax -2.13975 -1.81265 3.83696
lowerneck -10.3134 -12.2958 -9.52046
upperneck 29.0131 -16.3864 6.13346
head 12.6842 -7.28143 1.54952
rclavicle -1.01778e-013 2.22639e-014
rhumerus -27.0893 10.5778 -69.2963
rradius 51.2275
rwrist 12.4739
rhand -29.7098 17.1186
rfingers 7.12502
rthumb -3.03724 -12.8396
lclavicle -1.01778e-013 2.22639e-014
lhumerus -29.9593 -9.68661 94.6604
lradius 35.9004
lwrist 14.0077
lhand -17.9622 51.5575
lfingers 7.12502
lthumb 8.30685 441.374
rfemur -11.8675 8.70064 20.6317
rtibia 21.3772
rfoot -10.2258 -25.0845
rtoes 1.54117
lfemur -17.6369 9.37122 -20.4554
ltibia 39.0153
lfoot -9.34187 -2.67287
ltoes -27.563
789
root -9.48906 17.7549 -0.204796 -186.869 64.8713 -192.503
lowerback 6.7311 -3.12423 1.74383
upperback 1.3326 -3.77102 4.32175
thorax -2.21316 -1.82089 3.80717
lowerneck -10.1221 -12.3614 -9.5748
upperneck 28.3143 -16.3882 5.85173
head 12.3366 -7.36602 1.46957
rclavicle 1.19271e-015 -1.90833e-014
rhumerus -27.0228 10.6614 -69.1449
rradius 51.2182
rwrist 11.9843
rhand -29.4378 17.5442
rfingers 7.12502
rthumb -2.77455 -12.4175
lclavicle 1.19271e-015 -1.90833e-014
lhumerus -30.0128 -9.91784 94.8156
lradius 35.7727
lwrist 14.1037
lhand -17.8094 51.5872
lfingers 7.12502
lthumb 8.45424 441.398
rfemur -11.9184 8.95212 20.6562
rtibia 21.4408
rfoot -10.2092 -25.3308
rtoes 1.7428
lfemur -17.4985 10.5689 -20.8428
ltibia 40.4374
lfoot -10.105 -2.24777
ltoes -30.0174
790
root -9.52241 17.7517 -0.20653 -186.808 64.8744 -192.365
lowerback 6.70946 -3.15572 1.78041
upperback 1.3113 -3.81089 4.31935
thorax -2.22366 -1.84102 3.787
lowerneck -10.0038 -12.4123 -9.74402
upperneck 27.6431 -16.4066 5.77925
head 12.0559 -7.4389 1.47681
rclavicle 4.85035e-014 1.27222e-014
rhumerus -26.9355 10.6618 -68.9959
rradius 51.1723
rwrist 11.6831
rhand -29.3769 17.8746
rfingers 7.12502
rthumb -2.71568 -12.0879
lclavicle 4.85035e-014 1.27222e-014
lhumerus -29.9805 -10.0633 94.9242
lradius 35.5884
lwrist 14.0046
lhand -17.7915 51.6491
lfingers 7.12502
lthumb 8.47158 441.459
rfemur -11.9398 9.34624 20.6434
rtibia 21.4332
rfoot -9.82499 -25.6618
rtoes 1.02164
lfemur -17.327 11.6717 -21.2257
ltibia 41.9025
lfoot -10.6428 -2.43956
ltoes -31.2284
791
root -9.55637 17.7517 -0.20958 -186.773 64.8828 -192.298
lowerback 6.6509 -3.20599 1.73556
upperback 1.24716 -3.88445 4.3078
thorax -2.25135 -1.8785 3.80495
lowerneck -9.94895 -12.4124 -9.83003
upperneck 27.1235 -16.3494 5.6338
head 11.8284 -7.46815 1.45447
rclavicle 9.14409e-015 3.18055e-015
rhumerus -26.8705 10.6454 -68.9076
rradius 50.9977
rwrist 11.7989
rhand -29.5885 18.0435
rfingers 7.12502
rthumb -2.92004 -11.9163
lclavicle 9.14409e-015 3.18055e-015
lhumerus -29.9436 -10.0225 94.9489
lradius 35.3643
lwrist 13.6598
lhand -17.6164 51.7047
lfingers 7.12502
lthumb 8.64052 441.508
rfemur -11.9544 9.75628 20.5903
rtibia 21.3585
rfoot -9.55321 -25.9686
rtoes 0.835268
lfemur -17.1375 12.5756 -21.5976
ltibia 43.3469
lfoot -10.9364 -3.1543
ltoes -30.8871
792
root -9.58989 17.7544 -0.214382 -186.592 64.9228 -192.001
lowerback 6.63459 -3.25915 1.75949
upperback 1.16567 -3.95147 4.32812
thorax -2.32326 -1.9119 3.82063
lowerneck -9.85927 -12.397 -9.73112
upperneck 26.6238 -16.2416 5.24338
head 11.5571 -7.48402 1.33084
rclavicle -3.97569e-016 6.52014e-014
rhumerus -26.8981 10.6029 -68.7932
rradius 50.785
rwrist 11.937
rhand -29.8694 18.3422
rfingers 7.12502
rthumb -3.19136 -11.6137
lclavicle -3.97569e-016 6.52014e-014
lhumerus -29.9482 -9.88269 94.9699
lradius 35.2013
lwrist 13.3085
lhand -17.3429 51.852
lfingers 7.12502
lthumb 8.90449 441.644
rfemur -11.8724 10.0907 20.6588
rtibia 21.2363
rfoot -9.62726 -26.2015
rtoes 1.7073
lfemur -16.7896 13.2138 -21.7787
ltibia 44.7228
lfoot -11.0571 -3.98964
ltoes -29.8773
793
root -9.62 17.7567 -0.221262 -186.272 64.9858 -191.548
lowerback 6.56302 -3.30193 1.83833
upperback 1.07442 -4.00127 4.37266
thorax -2.37748 -1.9367 3.82621
lowerneck -9.67594 -12.4162 -9.72923
upperneck 26.0672 -16.1983 4.95504
head 11.2752 -7.52829 1.25571
rclavicle -5.00937e-014 4.45278e-014
rhumerus -26.9973 10.4682 -68.5514
rradius 50.7119
rwrist 11.5893
rhand -29.6869 18.8719
rfingers 7.12502
rthumb -3.01511 -11.0865
lclavicle -5.00937e-014 4.45278e-014
lhumerus -30.0266 -9.75119 95.0571
lradius 35.1478
lwrist 13.132
lhand -17.3177 51.9938
lfingers 7.12502
lthumb 8.92879 441.785
rfemur -11.7708 10.3812 20.8044
rtibia 21.0793
rfoot -9.62083 -26.406
rtoes 2.19719
lfemur -16.3404 13.7805 -21.793
ltibia 45.9845
lfoot -11.1542 -4.79005
ltoes -29.2888
794
root -9.65172 17.759 -0.229097 -185.924 65.0308 -191.217
lowerback 6.35976 -3.34326 1.85517
upperback 0.931352 -4.06111 4.40678
thorax -2.40775 -1.96756 3.84965
lowerneck -9.47621 -12.449 -9.94125
upperneck 25.5918 -16.2196 4.97394
head 11.0809 -7.58097 1.30865
rclavicle -9.89948e-014 -1.27222e-014
rhumerus -27.0769 10.2249 -68.2618
rradius 50.6384
rwrist 10.9407
rhand -29.216 19.4021
rfingers 7.12502
rthumb -2.56033 -10.5623
lclavicle -9.89948e-014 -1.27222e-014
lhumerus -30.136 -9.63396 95.1475
lradius 35.1357
lwrist 13.0896
lhand -17.4181 52.0605
lfingers 7.12502
lthumb 8.83186 441.856
rfemur -11.8323 10.6229 20.8495
rtibia 20.8899
rfoot -9.37837 -26.5614
rtoes 1.86907
lfemur -15.9853 14.1882 -21.8411
ltibia 47.0875
lfoot -11.2273 -5.37742
ltoes -29.4381
795
root -9.68699 17.7589 -0.237987 -185.663 65.0393 -191
lowerback 6.13536 -3.3871 1.82005
upperback 0.786709 -4.13186 4.40299
thorax -2.4262 -2.00447 3.86192
lowerneck -9.38238 -12.4836 -10.111
upperneck 25.2439 -16.2529 5.00764
head 10.9549 -7.62539 1.34996
rclavicle -1.98785e-015 4.13472e-014
rhumerus -27.1691 9.90879 -68.0558
rradius 50.3994
rwrist 10.5468
rhand -29.3384 19.795
rfingers 7.12502
rthumb -2.67856 -10.168
lclavicle -1.98785e-015 4.13472e-014
lhumerus -30.2679 -9.72348 95.2109
lradius 35.2702
lwrist 13.3002
lhand -17.4925 52.2195
lfingers 7.12502
lthumb 8.76006 442.018
rfemur -11.9185 10.9382 20.8133
rtibia 20.6989
rfoot -9.16092 -26.7901
rtoes 1.73982
lfemur -15.6002 14.2931 -21.9217
ltibia 47.9931
lfoot -11.2916 -5.65988
ltoes -29.372
796
root -9.72192 17.7569 -0.248062 -185.457 65.0225 -190.755
lowerback 5.95426 -3.41714 1.78132
upperback 0.676939 -4.18312 4.39002
thorax -2.43405 -2.03137 3.86631
lowerneck -9.37857 -12.5558 -10.1504
upperneck 24.8864 -16.3185 4.8856
head 10.8182 -7.6886 1.3085
rclavicle 5.48646e-014 -1.43125e-014
rhumerus -27.3699 9.42012 -67.8247
rradius 50.1785
rwrist 10.617
rhand -29.9822 19.9776
rfingers 7.12502
rthumb -3.30025 -9.97659
lclavicle 5.48646e-014 -1.43125e-014
lhumerus -30.3512 -9.92641 95.3239
lradius 35.4301
lwrist 13.5796
lhand -17.6911 52.2047
lfingers 7.12502
lthumb 8.56846 442.011
rfemur -11.8964 11.1838 20.8073
rtibia 20.5283
rfoot -8.94561 -26.9851
rtoes 1.51768
lfemur -15.0431 14.1657 -21.9312
ltibia 48.6819
lfoot -11.5525 -5.52863
ltoes -30.1786
797
root -9.75718 17.7563 -0.257861 -185.152 64.984 -190.401
lowerback 5.78482 -3.4471 1.75756
upperback 0.549647 -4.23022 4.39962
thorax -2.46606 -2.05556 3.88701
lowerneck -9.37539 -12.6251 -10.2311
upperneck 24.5499 -16.3838 4.80748
head 10.6985 -7.74892 1.28814
rclavicle -5.32743e-014 3.18055e-014
rhumerus -27.6552 8.7082 -67.4944
rradius 50.1274
rwrist 11.0813
rhand -30.3697 19.4667
rfingers 7.12502
rthumb -3.6745 -10.4814
lclavicle -5.32743e-014 3.18055e-014
lhumerus -30.3579 -9.83527 95.442
lradius 35.444
lwrist 13.4342
lhand -17.7961 51.9851
lfingers 7.12502
lthumb 8.46711 441.795
rfemur -11.8802 11.2992 20.8571
rtibia 20.369
rfoot -8.60554 -27.0802
rtoes 0.793806
lfemur -14.4095 13.8554 -21.839
ltibia 49.1616
lfoot -11.8861 -5.15147
ltoes -31.8263
